<mxfile host="app.diagrams.net" modified="2023-11-17T06:18:52.851Z" agent="Mozilla/5.0 (Windows NT 10.0; Win64; x64) AppleWebKit/537.36 (KHTML, like Gecko) Chrome/118.0.0.0 Safari/537.36" etag="_5LaP0DG4AkOoqnpFTuR" version="22.1.2" type="github">
  <diagram name="Страница — 1" id="UBM8uuqGAXcxDV0GicOs">
    <mxGraphModel dx="1425" dy="542" grid="0" gridSize="10" guides="1" tooltips="1" connect="1" arrows="1" fold="1" page="1" pageScale="1" pageWidth="827" pageHeight="1169" math="0" shadow="0">
      <root>
        <mxCell id="0" />
        <mxCell id="1" parent="0" />
        <mxCell id="SP7nUaGou8AFclUCDvNq-2" style="edgeStyle=orthogonalEdgeStyle;rounded=0;orthogonalLoop=1;jettySize=auto;html=1;entryX=0.5;entryY=0;entryDx=0;entryDy=0;" parent="1" target="8RD01GwfZpLmEbGkj-MV-2" edge="1">
          <mxGeometry relative="1" as="geometry">
            <mxPoint x="310" y="92" as="sourcePoint" />
            <Array as="points">
              <mxPoint x="310" y="92" />
            </Array>
          </mxGeometry>
        </mxCell>
        <mxCell id="8RD01GwfZpLmEbGkj-MV-2" value="Контроль статуса заказов" style="rounded=0;whiteSpace=wrap;html=1;" parent="1" vertex="1">
          <mxGeometry x="250" y="180" width="120" height="80" as="geometry" />
        </mxCell>
        <mxCell id="SP7nUaGou8AFclUCDvNq-10" style="edgeStyle=orthogonalEdgeStyle;rounded=0;orthogonalLoop=1;jettySize=auto;html=1;exitX=1;exitY=0.5;exitDx=0;exitDy=0;entryX=0.25;entryY=0;entryDx=0;entryDy=0;" parent="1" source="8RD01GwfZpLmEbGkj-MV-3" target="gTo4boSulwLFCVvMiwWt-1" edge="1">
          <mxGeometry relative="1" as="geometry">
            <mxPoint x="490" y="500" as="targetPoint" />
            <mxPoint x="290" y="420" as="sourcePoint" />
            <Array as="points">
              <mxPoint x="590" y="320" />
            </Array>
          </mxGeometry>
        </mxCell>
        <mxCell id="SP7nUaGou8AFclUCDvNq-12" value="Материалы &lt;br&gt;и инструменты &lt;br&gt;готовы" style="edgeLabel;html=1;align=center;verticalAlign=middle;resizable=0;points=[];" parent="SP7nUaGou8AFclUCDvNq-10" vertex="1" connectable="0">
          <mxGeometry x="0.1657" y="2" relative="1" as="geometry">
            <mxPoint x="-26" y="-40" as="offset" />
          </mxGeometry>
        </mxCell>
        <mxCell id="8RD01GwfZpLmEbGkj-MV-3" value="Подготовка материалов и инструментов" style="rounded=0;whiteSpace=wrap;html=1;" parent="1" vertex="1">
          <mxGeometry x="400" y="280" width="120" height="80" as="geometry" />
        </mxCell>
        <mxCell id="gTo4boSulwLFCVvMiwWt-1" value="Выполнение работ" style="rounded=0;whiteSpace=wrap;html=1;" parent="1" vertex="1">
          <mxGeometry x="560" y="400" width="120" height="80" as="geometry" />
        </mxCell>
        <mxCell id="gTo4boSulwLFCVvMiwWt-6" value="" style="endArrow=classic;html=1;rounded=0;exitX=1.005;exitY=0.865;exitDx=0;exitDy=0;entryX=0.335;entryY=0.015;entryDx=0;entryDy=0;entryPerimeter=0;exitPerimeter=0;" parent="1" source="8RD01GwfZpLmEbGkj-MV-2" target="8RD01GwfZpLmEbGkj-MV-3" edge="1">
          <mxGeometry width="50" height="50" relative="1" as="geometry">
            <mxPoint x="510" y="220" as="sourcePoint" />
            <mxPoint x="620" y="220" as="targetPoint" />
            <Array as="points">
              <mxPoint x="440" y="249" />
            </Array>
          </mxGeometry>
        </mxCell>
        <mxCell id="gTo4boSulwLFCVvMiwWt-9" value="" style="endArrow=classic;html=1;rounded=0;entryX=0;entryY=0.25;entryDx=0;entryDy=0;" parent="1" target="8RD01GwfZpLmEbGkj-MV-2" edge="1">
          <mxGeometry width="50" height="50" relative="1" as="geometry">
            <mxPoint x="682" y="440" as="sourcePoint" />
            <mxPoint x="331" y="265" as="targetPoint" />
            <Array as="points">
              <mxPoint x="719" y="440" />
              <mxPoint x="719" y="500" />
              <mxPoint x="222" y="502" />
              <mxPoint x="219" y="200" />
            </Array>
          </mxGeometry>
        </mxCell>
        <mxCell id="gTo4boSulwLFCVvMiwWt-11" value="Изменение статуса заказов" style="text;html=1;strokeColor=none;fillColor=none;align=center;verticalAlign=middle;whiteSpace=wrap;rounded=0;" parent="1" vertex="1">
          <mxGeometry x="723" y="456" width="90" height="30" as="geometry" />
        </mxCell>
        <mxCell id="gTo4boSulwLFCVvMiwWt-16" value="" style="endArrow=classic;html=1;rounded=0;entryX=0.415;entryY=1.055;entryDx=0;entryDy=0;entryPerimeter=0;" parent="1" edge="1">
          <mxGeometry width="50" height="50" relative="1" as="geometry">
            <mxPoint x="300" y="560" as="sourcePoint" />
            <mxPoint x="299.8000000000002" y="260" as="targetPoint" />
          </mxGeometry>
        </mxCell>
        <mxCell id="gTo4boSulwLFCVvMiwWt-19" value="Сотрудник" style="text;html=1;strokeColor=none;fillColor=none;align=center;verticalAlign=middle;whiteSpace=wrap;rounded=0;" parent="1" vertex="1">
          <mxGeometry x="404" y="585" width="60" height="30" as="geometry" />
        </mxCell>
        <mxCell id="gTo4boSulwLFCVvMiwWt-20" value="" style="endArrow=classic;html=1;rounded=0;entryX=0.5;entryY=1;entryDx=0;entryDy=0;" parent="1" target="gTo4boSulwLFCVvMiwWt-1" edge="1">
          <mxGeometry width="50" height="50" relative="1" as="geometry">
            <mxPoint x="300" y="560" as="sourcePoint" />
            <mxPoint x="660" y="540" as="targetPoint" />
            <Array as="points">
              <mxPoint x="620" y="560" />
            </Array>
          </mxGeometry>
        </mxCell>
        <mxCell id="iDcGcSW94u35pP6nEgol-1" value="" style="endArrow=classic;html=1;rounded=0;" parent="1" edge="1">
          <mxGeometry width="50" height="50" relative="1" as="geometry">
            <mxPoint x="312" y="90" as="sourcePoint" />
            <mxPoint x="800" y="90" as="targetPoint" />
          </mxGeometry>
        </mxCell>
        <mxCell id="iDcGcSW94u35pP6nEgol-2" value="Договор" style="text;html=1;strokeColor=none;fillColor=none;align=center;verticalAlign=middle;whiteSpace=wrap;rounded=0;" parent="1" vertex="1">
          <mxGeometry x="448" y="56" width="60" height="30" as="geometry" />
        </mxCell>
        <mxCell id="iDcGcSW94u35pP6nEgol-3" value="" style="endArrow=classic;html=1;rounded=0;entryX=0.652;entryY=0.035;entryDx=0;entryDy=0;entryPerimeter=0;" parent="1" target="8RD01GwfZpLmEbGkj-MV-3" edge="1">
          <mxGeometry width="50" height="50" relative="1" as="geometry">
            <mxPoint x="480" y="90" as="sourcePoint" />
            <mxPoint x="480" y="270" as="targetPoint" />
          </mxGeometry>
        </mxCell>
        <mxCell id="iDcGcSW94u35pP6nEgol-4" value="" style="endArrow=classic;html=1;rounded=0;entryX=0.667;entryY=0;entryDx=0;entryDy=0;entryPerimeter=0;" parent="1" target="gTo4boSulwLFCVvMiwWt-1" edge="1">
          <mxGeometry width="50" height="50" relative="1" as="geometry">
            <mxPoint x="640" y="90" as="sourcePoint" />
            <mxPoint x="700" y="110" as="targetPoint" />
          </mxGeometry>
        </mxCell>
        <mxCell id="iDcGcSW94u35pP6nEgol-5" value="" style="endArrow=classic;html=1;rounded=0;exitX=1;exitY=0.25;exitDx=0;exitDy=0;" parent="1" source="8RD01GwfZpLmEbGkj-MV-2" edge="1">
          <mxGeometry width="50" height="50" relative="1" as="geometry">
            <mxPoint x="690" y="200" as="sourcePoint" />
            <mxPoint x="800" y="200" as="targetPoint" />
          </mxGeometry>
        </mxCell>
        <mxCell id="iDcGcSW94u35pP6nEgol-6" value="Заказ готов" style="text;html=1;strokeColor=none;fillColor=none;align=center;verticalAlign=middle;whiteSpace=wrap;rounded=0;" parent="1" vertex="1">
          <mxGeometry x="667" y="170" width="90" height="30" as="geometry" />
        </mxCell>
        <mxCell id="6sgp_j9lnv-MHtX0Il7Z-1" value="" style="endArrow=classic;html=1;rounded=0;entryX=0.415;entryY=1.055;entryDx=0;entryDy=0;entryPerimeter=0;exitX=0.5;exitY=0;exitDx=0;exitDy=0;" parent="1" edge="1" source="gTo4boSulwLFCVvMiwWt-19">
          <mxGeometry width="50" height="50" relative="1" as="geometry">
            <mxPoint x="430" y="560" as="sourcePoint" />
            <mxPoint x="430.00000000000017" y="360" as="targetPoint" />
          </mxGeometry>
        </mxCell>
        <mxCell id="tkARRXcPkGaXXbMb_q4t-2" value="Заказ &lt;br&gt;не выполнен" style="text;html=1;align=center;verticalAlign=middle;resizable=0;points=[];autosize=1;strokeColor=none;fillColor=none;" vertex="1" parent="1">
          <mxGeometry x="369" y="206" width="89" height="41" as="geometry" />
        </mxCell>
      </root>
    </mxGraphModel>
  </diagram>
</mxfile>
